PathFileType	4	(X/Y/Z)	/Users/itak/Documents/Research/Walk-IL/dataset/trc/00446_00167.trc
DataRate	CameraRate	NumFrames	NumMarkers	Units	OrigDataRate	OrigDataStartFrame	OrigNumFrames
100.000000	100.000000	4	53	mm	100.000000	357	477
Frame#	Time	RPSI			LPSI			L3			STRN			T10			C7			CLAV			RBAK			LBAK			LSHO			LUPA			LAEL			LAOL			LWTS			LWPS			LFRA			LIFD			LHPS			LHTS			RSHO			RUPA			RAEL			RAOL			RWTS			RWPS			RFRA			RIFD			RHTS			RHPS			RBHD			LFHD			RFHD			LBHD			LHIP			RHIP			RASI			LASI			LKNE			LTHI			LANK			LTIP			LTOE			LMT1			LMT5			LHEE			RKNE			RTHI			RANK			RTIP			RTOE			RMT1			RMT5			RHEE			
		X1	Y1	Z1	X2	Y2	Z2	X3	Y3	Z3	X4	Y4	Z4	X5	Y5	Z5	X6	Y6	Z6	X7	Y7	Z7	X8	Y8	Z8	X9	Y9	Z9	X10	Y10	Z10	X11	Y11	Z11	X12	Y12	Z12	X13	Y13	Z13	X14	Y14	Z14	X15	Y15	Z15	X16	Y16	Z16	X17	Y17	Z17	X18	Y18	Z18	X19	Y19	Z19	X20	Y20	Z20	X21	Y21	Z21	X22	Y22	Z22	X23	Y23	Z23	X24	Y24	Z24	X25	Y25	Z25	X26	Y26	Z26	X27	Y27	Z27	X28	Y28	Z28	X29	Y29	Z29	X30	Y30	Z30	X31	Y31	Z31	X32	Y32	Z32	X33	Y33	Z33	X34	Y34	Z34	X35	Y35	Z35	X36	Y36	Z36	X37	Y37	Z37	X38	Y38	Z38	X39	Y39	Z39	X40	Y40	Z40	X41	Y41	Z41	X42	Y42	Z42	X43	Y43	Z43	X44	Y44	Z44	X45	Y45	Z45	X46	Y46	Z46	X47	Y47	Z47	X48	Y48	Z48	X49	Y49	Z49	X50	Y50	Z50	X51	Y51	Z51	X52	Y52	Z52	X53	Y53	Z53	

358	3.57	1080.2041015625	922.1052856445312	971.4494018554688	1162.604125976562	919.6958618164062	856.1400756835938	1115.606201171875	1026.0029296875	931.2745971679688	1343.107666015625	1240.372436523438	1060.739135742188	1098.505859375	1149.537353515625	916.5161743164062	1134.763793945312	1422.822143554688	955.1710815429688	1306.440307617188	1351.667114257812	1034.705444335938	1040.321166992188	1299.304077148438	1004.831787109375	1153.2998046875	1372.056640625	853.7473754882812	1279.447631835938	1402.209594726562	832.4335327148438	1329.0634765625	1295.630004882812	737.9346923828125	1417.27294921875	1120.10107421875	711.526123046875	1334.642456054688	1050.954956054688	716.6600952148438	1502.214599609375	1078.930053710938	894.2836303710938	1543.681274414062	1027.1708984375	861.2157592773438	1474.545166015625	1084.144287109375	768.7716674804688	1576.798583984375	1028.9697265625	1028.626342773438	1586.420654296875	1007.146179199219	930.7803344726562	1557.431762695312	1067.02685546875	958.5897216796875	1114.414916992188	1395.11328125	1128.36181640625	1058.702514648438	1336.763671875	1182.098266601562	987.8098754882812	1067.648559570312	1237.049682617188	962.0350952148438	1058.002563476562	1175.200805664062	1038.117919921875	840.2022094726562	1250.413452148438	953.9360961914062	855.6806640625	1269.238647460938	971.7886962890625	1012.351867675781	1247.276489257812	973.415283203125	691.5150146484375	1249.592895507812	1007.194458007812	741.8672485351562	1263.664794921875	935.8704223632812	766.9989624023438	1271.18896484375	1154.268432617188	1624.363159179688	1050.20751953125	1351.429565429688	1644.885498046875	992.353515625	1279.718383789062	1650.997192382812	1101.033569335938	1237.590454101562	1619.349487304688	893.8074340820312	1352.9921875	834.8540649414062	848.3306884765625	1104.185913085938	838.2208251953125	1160.427490234375	1218.45703125	891.9197998046875	1166.502563476562	1375.34375	885.2467041015625	964.0669555664062	1439.748779296875	425.9247131347656	941.4525756835938	1441.508422851562	585.0055541992188	917.2546997070312	1319.577514648438	20.19083404541016	865.55029296875	1414.975463867188	269.1662902832031	913.0865478515625	1457.484008789062	31.29855155944824	1059.180053710938	1383.4853515625	41.96143341064453	1038.703002929688	1450.471557617188	25.45938301086426	945.8804931640625	1246.142578125	14.41360569000244	877.8001708984375	1208.64599609375	458.5632019042969	1211.545776367188	1158.853149414062	717.2830810546875	1214.222778320312	1147.067626953125	31.93067169189453	1178.609497070312	1196.826416015625	311.2618408203125	1222.010498046875	1357.69775390625	34.17678833007812	1254.484375	1322.378051757812	41.59584808349609	1190.930419921875	1245.300415039062	32.20684051513672	1271.752197265625	1116.822998046875	20.43317794799805	1106.834838867188	
359	3.58	1082.37548828125	924.0211181640625	972.179443359375	1165.757568359375	922.3001098632812	857.7445678710938	1118.681274414062	1027.902465820312	932.7764282226562	1345.003784179688	1241.757934570312	1063.881713867188	1100.809326171875	1151.340087890625	918.0382690429688	1137.322265625	1424.280517578125	958.2012329101562	1308.635986328125	1353.168212890625	1037.895385742188	1042.603149414062	1300.8681640625	1007.581115722656	1156.202026367188	1373.900512695312	857.015380859375	1282.269409179688	1404.090087890625	835.8229370117188	1331.038330078125	1298.062866210938	740.5291137695312	1416.792724609375	1119.821044921875	711.8883056640625	1332.229125976562	1053.727661132812	717.004150390625	1504.118896484375	1069.86865234375	891.7198486328125	1542.715576171875	1017.43701171875	856.29345703125	1474.156616210938	1079.9052734375	766.7503662109375	1579.71728515625	1012.635925292969	1022.857055664062	1585.963989257812	993.5103759765625	924.2526245117188	1560.070556640625	1053.66650390625	954.549560546875	1116.654174804688	1396.533203125	1131.196044921875	1061.317260742188	1338.145751953125	1185.155883789062	993.2378540039062	1068.461791992188	1241.811401367188	966.9475708007812	1058.062622070312	1180.229736328125	1046.735229492188	841.5182495117188	1255.979614257812	962.6763916015625	856.6449584960938	1275.735473632812	978.099365234375	1012.905090332031	1252.469116210938	982.6055297851562	692.6571044921875	1258.793212890625	1016.385498046875	743.0504760742188	1271.168212890625	945.2281494140625	768.4114990234375	1279.80224609375	1157.228271484375	1625.66162109375	1053.9404296875	1354.428466796875	1645.731689453125	996.146728515625	1282.699951171875	1651.797241210938	1104.757934570312	1240.562377929688	1620.652587890625	897.576904296875	1355.3701171875	836.5091552734375	851.284423828125	1104.086303710938	839.0660400390625	1161.130126953125	1218.395263671875	892.8363037109375	1168.735961914062	1377.257446289062	886.3760986328125	967.6221313476562	1438.931274414062	426.3669738769531	941.9099731445312	1441.523681640625	585.557861328125	918.6175537109375	1319.583129882812	20.14888000488281	865.501220703125	1414.427612304688	269.6167907714844	913.178955078125	1457.368774414062	31.49047660827637	1059.055786132812	1383.343017578125	42.02781677246094	1038.575439453125	1450.383422851562	25.47621154785156	945.8880004882812	1246.167358398438	14.41336631774902	877.7078857421875	1207.265991210938	458.9115905761719	1211.907958984375	1158.352783203125	717.7804565429688	1214.6494140625	1146.935791015625	31.85810852050781	1178.745239257812	1195.71142578125	311.5364990234375	1222.294677734375	1357.4541015625	34.1688232421875	1254.532348632812	1322.242553710938	41.82424926757812	1191.01171875	1245.154663085938	32.0449333190918	1271.838500976562	1116.740478515625	20.44616317749023	1106.905639648438	
360	3.59	1084.364379882812	925.9407348632812	973.2822265625	1168.527587890625	924.8958740234375	859.576904296875	1121.649780273438	1029.7451171875	934.4034423828125	1346.810180664062	1243.144409179688	1066.971557617188	1103.0869140625	1153.116088867188	919.5872192382812	1139.792846679688	1425.766235351562	961.0740966796875	1310.749755859375	1354.661010742188	1041.014526367188	1044.831787109375	1302.413208007812	1010.147644042969	1159.07177734375	1375.738891601562	860.1605224609375	1285.057983398438	1405.99169921875	839.1524658203125	1333.0849609375	1300.608032226562	743.0889282226562	1416.283569335938	1119.676147460938	712.1856079101562	1329.83642578125	1056.797607421875	717.3551025390625	1505.469604492188	1060.572143554688	888.7948608398438	1541.1875	1007.695556640625	850.9967041015625	1473.528076171875	1075.758911132812	764.5610961914062	1581.546264648438	996.0863647460938	1016.520141601562	1584.75830078125	979.863037109375	917.2733764648438	1561.93896484375	1040.119750976562	950.0154418945312	1118.70751953125	1398.066528320312	1133.800415039062	1063.600952148438	1339.767700195312	1187.95068359375	998.201416015625	1069.423461914062	1246.282836914062	971.5442504882812	1058.107055664062	1184.930541992188	1055.82958984375	843.3778686523438	1261.683959960938	971.7569580078125	857.5740966796875	1281.914672851562	984.111572265625	1013.565185546875	1257.40576171875	993.4893188476562	693.9008178710938	1267.64599609375	1026.721801757812	744.5726318359375	1278.588012695312	955.6539916992188	769.7391357421875	1287.92333984375	1160.043334960938	1626.991088867188	1057.546142578125	1357.311401367188	1646.65087890625	999.8800659179688	1285.541015625	1652.645141601562	1108.416381835938	1243.442138671875	1622.054931640625	901.2550659179688	1357.4150390625	838.208984375	854.0306396484375	1104.231323242188	839.94091796875	1162.125	1218.62451171875	893.6094970703125	1170.905883789062	1379.069091796875	887.522216796875	970.8611450195312	1437.87451171875	426.8687438964844	942.1680908203125	1441.275634765625	586.1505737304688	919.7805786132812	1319.584838867188	20.1076602935791	865.4437255859375	1413.72265625	270.0975036621094	913.1156616210938	1457.252563476562	31.68635368347168	1058.9150390625	1383.1943359375	42.09815979003906	1038.430419921875	1450.285522460938	25.49246978759766	945.8684692382812	1246.180541992188	14.397385597229	877.6198120117188	1205.753173828125	459.1981506347656	1211.861938476562	1158.06787109375	718.297119140625	1215.343505859375	1146.797119140625	31.74889373779297	1178.809448242188	1194.4560546875	311.7803955078125	1222.242797851562	1357.213500976562	34.18577575683594	1254.50830078125	1322.088012695312	42.00258255004883	1191.024536132812	1245.044677734375	31.93797302246094	1271.872314453125	1116.642700195312	20.39535140991211	1106.91455078125	
361	3.6	1086.173461914062	927.8455200195312	974.7630004882812	1170.895141601562	927.3826293945312	861.613037109375	1124.419677734375	1031.49951171875	936.1918334960938	1348.551147460938	1244.440063476562	1070.020141601562	1105.349487304688	1154.828979492188	921.2516479492188	1142.204223632812	1427.234741210938	963.8138427734375	1312.816528320312	1356.060424804688	1044.084228515625	1047.011840820312	1303.903686523438	1012.561401367188	1161.919799804688	1377.5048828125	863.19775390625	1287.855712890625	1407.806518554688	842.429443359375	1335.243896484375	1303.130981445312	745.6270751953125	1415.829833984375	1119.627197265625	712.43701171875	1327.601928710938	1060.002807617188	717.6358642578125	1506.21337890625	1051.16064453125	885.548583984375	1539.165283203125	998.1307983398438	845.4028930664062	1472.71240234375	1071.758178710938	762.2630004882812	1582.151245117188	979.6167602539062	1009.722717285156	1582.840698242188	966.4729614257812	909.955810546875	1562.94482421875	1026.609741210938	945.0653076171875	1120.619506835938	1399.623779296875	1136.231201171875	1065.598510742188	1341.505126953125	1190.525756835938	1002.69677734375	1070.436767578125	1250.486572265625	975.817138671875	1058.06201171875	1189.338745117188	1065.3154296875	845.7713623046875	1267.514526367188	981.104736328125	858.421142578125	1287.795654296875	989.8071899414062	1014.266235351562	1262.111938476562	1006.053466796875	695.226806640625	1276.067260742188	1038.202758789062	746.5216674804688	1285.908325195312	967.0556030273438	770.8641357421875	1295.473510742188	1162.710083007812	1628.305297851562	1061.006958007812	1360.079345703125	1647.609252929688	1003.537658691406	1288.23779296875	1653.511840820312	1111.999145507812	1246.231567382812	1623.500366210938	904.8241577148438	1359.135375976562	839.8571166992188	856.5546875	1104.638305664062	840.8329467773438	1163.403442382812	1219.171997070312	894.2147216796875	1173.008544921875	1380.778930664062	888.6112670898438	973.7597045898438	1436.658813476562	427.3795776367188	942.3009643554688	1440.855834960938	586.7345581054688	920.8065185546875	1319.581176757812	20.07660675048828	865.379150390625	1412.905517578125	270.5883483886719	912.9597778320312	1457.1328125	31.87299728393555	1058.779541015625	1383.04150390625	42.15443801879883	1038.287963867188	1450.171264648438	25.51946067810059	945.8289794921875	1246.179809570312	14.36429214477539	877.5420532226562	1204.201782226562	459.415771484375	1211.475463867188	1157.989501953125	718.8120727539062	1216.271362304688	1146.649536132812	31.6036434173584	1178.814086914062	1193.135498046875	311.9923400878906	1221.9150390625	1356.9765625	34.22819900512695	1254.412231445312	1321.914306640625	42.13240051269531	1190.974975585938	1244.968139648438	31.88097953796387	1271.860961914062	1116.525512695312	20.2811279296875	1106.872802734375	
